<svg enable-background="new 0 0 128 128" viewBox="0 0 128 128" xmlns="http://www.w3.org/2000/svg"><path d="m120 104h-112c-2.86 0-4-1.79-4-4v-72c0-2.21 1.79-4 4-4h112c2.21 0 4 1.79 4 4v72c0 2.21-1.79 4-4 4z" fill="#e0e0e0"/><path d="m123.9 27.1c0-1.68-1.69-3.1-3.9-3.1h-112c-2.21 0-3.65 1.52-3.65 3.29l59.56 48.86s55.93-47.11 57.6-48.59c1.67-1.47 2.39-.46 2.39-.46z" fill="#f5f5f5"/><path d="m5.07 102.56c-.38-.28-.3-.81.26-1.43l36.28-42.22c.56-.62 1.96.18 2.57.73.61.56.66 1.5.11 2.12l-37.3 40.32c-.7.67-1.3.93-1.92.48z" fill="#bdbdbd"/><path d="m122.93 102.56c.38-.28.3-.81-.26-1.43l-36.28-42.22c-.56-.62-1.96.18-2.57.73-.61.56-.66 1.5-.11 2.12l37.31 40.31c.69.68 1.29.94 1.91.49z" fill="#bdbdbd"/><path d="m123.9 27.1s-1.45-1.58-3.36-.09l-56.75 45.02-57.13-45.68c-.64-.53-1.58-.44-2.11.2s-.44 1.58.2 2.11l59.25 51.34 58.02-52.08c.63-.53 1.88-.82 1.88-.82z" fill="#9e9e9e"/><path d="m78.53 38.51c-10.78 0-14.74 12.73-14.74 12.73s-3.91-12.73-14.77-12.73c-8.16 0-17.47 6.39-14.03 20.92s28.82 32.63 28.82 32.63 25.3-18.1 28.74-32.63c3.44-14.52-5.86-20.92-14.02-20.92z" fill="#b71c1c"/><path d="m76.82 38.51c-9.54 0-13.04 11.4-13.04 11.4s-3.46-11.4-13.07-11.4c-7.22 0-15.45 5.72-12.41 18.72 3.04 13.01 25.5 29.21 25.5 29.21s22.38-16.2 25.43-29.21c3.04-12.99-5.19-18.72-12.41-18.72z" fill="#f44336"/></svg>